# xmcd
#
# Track frame offsets: 
#        150
#        10310
#        25172
#        42487
#        50445
#        59673
#        73209
#        90825
#        104448
#        122625
#
# Disc length: 1808 seconds
#
# Revision: 0
# Processed by: cddbd v1.5.2PL0 Copyright (c) Steve Scherf et al.
# Submitted via: ExactAudioCopy v0.95b4
#
DISCID=86070e0a
DTITLE=The Bluegrass Tribute Players - Jars of Clay Bluegrass Tribute
DYEAR=2007
DGENRE=Christian
TTITLE0=Flood
TTITLE1=Dead Man (Carry Me)
TTITLE2=Love Song for a Savior
TTITLE3=I'll Fly Away
TTITLE4=Come Thou Fount of Every Blessing
TTITLE5=Work
TTITLE6=Worlds Apart
TTITLE7=Liquid
TTITLE8=God Will Lift Up Your Head
TTITLE9=Like a Child
EXTD=
EXTT0=
EXTT1=
EXTT2=
EXTT3=
EXTT4=
EXTT5=
EXTT6=
EXTT7=
EXTT8=
EXTT9=
PLAYORDER=
